<svg width="457" height="344" viewBox="0 0 457 344" fill="none" xmlns="http://www.w3.org/2000/svg">
<path d="M0 48.4397C0 37.539 3.70831 29.091 11.125 23.0957C18.6765 16.9641 30.0039 13.8983 45.1069 13.8983C55.0857 13.8983 63.5812 14.8521 70.5934 16.7597V44.9651C63.0418 42.6487 55.5577 41.4905 48.141 41.4905C40.8592 41.4905 36.1395 42.3762 33.9819 44.1475C31.8243 45.7826 30.7455 48.2353 30.7455 51.5055V120.179C30.7455 126.72 35.8024 129.99 45.916 129.99C56.1646 129.99 64.5926 128.968 71.2002 126.924V154.516C63.9184 156.56 55.0857 157.582 44.7024 157.582C29.5993 157.582 18.3394 154.585 10.9227 148.589C3.6409 142.594 0 134.146 0 123.245V48.4397Z" fill="white"/>
<path d="M130.286 67.8564C130.286 62.6786 127.454 60.0897 121.791 60.0897C116.127 60.0897 113.295 62.6786 113.295 67.8564V124.676C113.295 129.854 116.127 132.443 121.791 132.443C127.454 132.443 130.286 129.854 130.286 124.676V67.8564ZM83.3587 66.8345C83.3587 56.4789 86.5277 48.4397 92.8656 42.7168C99.3383 36.8577 108.98 33.9282 121.791 33.9282C134.601 33.9282 144.176 36.8577 150.513 42.7168C156.986 48.4397 160.223 56.4789 160.223 66.8345V125.698C160.223 136.053 156.986 144.161 150.513 150.02C144.176 155.743 134.601 158.604 121.791 158.604C108.98 158.604 99.3383 155.743 92.8656 150.02C86.5277 144.161 83.3587 136.053 83.3587 125.698V66.8345Z" fill="white"/>
<path d="M179.883 34.5414C179.883 11.5138 191.884 0 215.887 0C218.989 0 222.697 0.340644 227.012 1.02193V24.7308C224.855 24.4583 222.832 24.322 220.944 24.322C214.067 24.322 210.628 27.5922 210.628 34.1326V35.9721H227.012V60.0897H210.628V156.56H179.883V60.0897H168.353V35.9721H179.883V34.5414Z" fill="white"/>
<path d="M239.537 34.5414C239.537 11.5138 251.539 0 275.542 0C278.644 0 282.352 0.340644 286.667 1.02193V24.7308C284.51 24.4583 282.487 24.322 280.599 24.322C273.722 24.322 270.283 27.5922 270.283 34.1326V35.9721H286.667V60.0897H270.283V156.56H239.537V60.0897H228.008V35.9721H239.537V34.5414Z" fill="white"/>
<path d="M293.731 122.223V66.8345C293.731 56.4789 296.9 48.4397 303.238 42.7168C309.576 36.8577 319.15 33.9282 331.961 33.9282C356.638 33.9282 368.977 44.897 368.977 66.8345V108.325H323.061V119.771C323.061 123.858 324.139 126.788 326.297 128.559C328.589 130.194 333.511 131.012 341.063 131.012C348.749 131.012 357.11 129.649 366.145 126.924V153.903C356.705 156.492 346.592 157.787 335.804 157.787C307.755 157.787 293.731 145.932 293.731 122.223ZM323.061 84.8205H340.861V67.2432C340.861 62.0654 337.894 59.4765 331.961 59.4765C326.027 59.4765 323.061 62.0654 323.061 67.2432V84.8205Z" fill="white"/>
<path d="M381.04 122.223V66.8345C381.04 56.4789 384.209 48.4397 390.547 42.7168C396.885 36.8577 406.459 33.9282 419.27 33.9282C443.947 33.9282 456.286 44.897 456.286 66.8345V108.325H410.37V119.771C410.37 123.858 411.449 126.788 413.606 128.559C415.899 130.194 420.821 131.012 428.372 131.012C436.059 131.012 444.419 129.649 453.454 126.924V153.903C444.015 156.492 433.901 157.787 423.113 157.787C395.065 157.787 381.04 145.932 381.04 122.223ZM410.37 84.8205H428.17V67.2432C428.17 62.0654 425.203 59.4765 419.27 59.4765C413.337 59.4765 410.37 62.0654 410.37 67.2432V84.8205Z" fill="white"/>
<path d="M48.6856 231.816C48.6856 221.754 43.43 216.723 32.9187 216.723H16.1559V308.456H32.9187C43.43 308.456 48.6856 303.313 48.6856 293.028V231.816ZM4.37218 206.326H33.5826C42.4342 206.326 49.1282 208.618 53.6647 213.202C58.2011 217.785 60.4693 223.935 60.4693 231.649V293.363C60.4693 301.301 58.2564 307.562 53.8306 312.146C49.4048 316.73 42.7661 319.022 33.9145 319.022H4.37218V206.326Z" fill="white"/>
<path d="M79.8617 294.705V248.084C79.8617 240.146 82.0746 233.829 86.5004 229.133C91.0368 224.326 97.8415 221.922 106.914 221.922C115.987 221.922 122.681 224.326 126.997 229.133C131.422 233.829 133.635 240.146 133.635 248.084V277.264H91.4794V294.202C91.4794 299.233 93.0284 302.978 96.1265 305.438C99.2246 307.897 104.038 309.127 110.566 309.127C117.094 309.127 123.843 308.121 130.814 306.108V317.177C125.282 318.966 118.698 319.86 111.064 319.86C90.2623 319.86 79.8617 311.475 79.8617 294.705ZM91.4794 267.369H122.349V248.084C122.349 237.574 117.204 232.32 106.914 232.32C96.6244 232.32 91.4794 237.574 91.4794 248.084V267.369Z" fill="white"/>
<path d="M153.808 198.276H165.592V319.022H153.808V198.276Z" fill="white"/>
<path d="M194.302 212.866C189.544 212.866 187.165 210.295 187.165 205.152C187.165 200.009 189.544 197.438 194.302 197.438C199.17 197.438 201.604 200.009 201.604 205.152C201.604 210.295 199.17 212.866 194.302 212.866ZM188.493 224.27H200.277V319.022H188.493V224.27Z" fill="white"/>
<path d="M261.018 223.599H272.968L252.056 319.022H235.459L214.547 223.599H226.663L235.791 267.369L243.923 310.636C247.243 292.077 252.941 263.065 261.018 223.599Z" fill="white"/>
<path d="M285.539 294.705V248.084C285.539 240.146 287.751 233.829 292.177 229.133C296.714 224.326 303.518 221.922 312.591 221.922C321.664 221.922 328.358 224.326 332.674 229.133C337.099 233.829 339.312 240.146 339.312 248.084V277.264H297.156V294.202C297.156 299.233 298.705 302.978 301.803 305.438C304.902 307.897 309.715 309.127 316.243 309.127C322.771 309.127 329.52 308.121 336.491 306.108V317.177C330.958 318.966 324.375 319.86 316.741 319.86C295.939 319.86 285.539 311.475 285.539 294.705ZM297.156 267.369H328.026V248.084C328.026 237.574 322.881 232.32 312.591 232.32C302.301 232.32 297.156 237.574 297.156 248.084V267.369Z" fill="white"/>
<path d="M390.023 223.096H394.172V234.5H388.529C384.546 234.5 380.95 235.562 377.742 237.686C376.746 238.357 374.588 239.866 371.269 242.214V319.022H359.485V223.599H370.771V230.81C371.103 230.587 371.933 229.972 373.26 228.966C374.699 227.959 375.529 227.4 375.75 227.289C376.082 227.065 376.801 226.618 377.908 225.947C379.125 225.276 380.01 224.885 380.563 224.773C381.227 224.549 382.112 224.27 383.219 223.935C384.878 223.376 387.146 223.096 390.023 223.096Z" fill="white"/>
<path d="M444.66 223.599H456.444L430.553 344.009H419.267L424.412 319.022H418.603L398.023 223.599H409.973L419.931 271.059L427.234 310.636C429.447 297.444 431.881 284.251 434.536 271.059L444.66 223.599Z" fill="white"/>
</svg>
