<svg width="210" height="325" viewBox="0 0 210 325" fill="none" xmlns="http://www.w3.org/2000/svg">
<path d="M206.065 35.3492C203.305 31.0698 199.274 30.9469 194.68 30.8068C194.16 30.791 193.632 30.7749 193.098 30.7525C192.692 30.7336 192.243 30.7409 191.774 30.7485C189.911 30.7788 187.732 30.8142 186.634 29.229C185.361 27.3911 185.482 23.8393 185.581 20.9072C185.613 19.9807 185.642 19.1155 185.625 18.3864C185.446 11.575 185.073 4.33963 182.477 1.92084C180.519 0.10607 174.661 0.357482 169.259 0.589345C167.508 0.664509 165.805 0.737618 164.298 0.737618H49.3175C47.0024 0.737618 44.5757 0.546722 42.1913 0.359157C37.5453 -0.00632303 33.06 -0.359156 29.8749 0.737618C25.2524 2.33713 24.9394 10.7422 24.6446 18.6569L24.6288 19.0827C24.3813 25.6165 22.7823 30.6583 17.4829 30.1504C11.3193 29.5693 5.18617 29.3861 2.39941 35.0351C-0.891821 41.7189 -0.213042 48.7154 1.00276 61.2471C1.17643 63.0372 1.36105 64.9402 1.54663 66.9714H207.843C207.961 65.4868 208.086 64.0212 208.21 62.5793C209.176 51.3046 210.018 41.4811 206.065 35.3492Z" fill="white"/>
<path fill-rule="evenodd" clip-rule="evenodd" d="M17.6124 79.4004C20.8343 123.559 24.0211 167.769 27.2079 211.979L27.2099 212.006C28.9402 236.011 30.6705 260.016 32.4066 284.013H38.9889C39.4375 287.769 39.9507 292.406 40.4918 297.296C41.5902 307.22 42.8037 318.185 43.8239 324.923H44.5519C51.2567 322.438 97.6073 302.375 97.6281 222.5C97.6196 222.272 97.6271 222.044 97.6504 221.818H86.1992C85.6448 221.813 85.1075 221.625 84.6699 221.285C84.2322 220.944 83.9186 220.469 83.777 219.932C82.6611 217.141 81.7614 214.267 81.0857 211.338C74.3491 215.191 68.9994 221.074 65.7992 228.149C62.7614 220.903 62.3637 212.818 64.6758 205.308C66.9879 197.798 71.8627 191.34 78.4483 187.063C78.5331 163.755 87.1507 141.287 102.67 123.912L102.912 123.696C103.363 123.301 103.941 123.081 104.54 123.077C104.886 123.08 105.228 123.154 105.544 123.297C105.864 123.44 106.15 123.65 106.384 123.912C122.084 141.311 130.656 163.995 130.39 187.44C137.099 191.598 142.073 198.052 144.389 205.602C146.705 213.153 146.207 221.289 142.985 228.5C139.802 221.413 134.448 215.525 127.699 211.688C127.287 214.527 126.527 217.305 125.438 219.959C125.061 221.091 124.308 221.818 123.554 221.818H111.342C111.361 221.954 111.375 222.09 111.383 222.226L111.388 222.258V222.324C111.392 222.441 111.392 222.559 111.388 222.677C111.555 304.846 160.836 323.496 164.99 324.923H166.411C166.774 318.451 167.954 309.52 169.106 300.814C169.899 294.814 170.678 288.921 171.166 284.013H177.824C179.956 253.786 182.148 223.644 184.34 193.501L184.341 193.485L184.341 193.476C187.145 154.92 189.949 116.362 192.626 77.6256H18.0387C17.5362 77.725 17.5705 78.5575 17.6124 79.4004ZM104.54 123.077L104.527 123.077H104.554L104.54 123.077Z" fill="white"/>
</svg>
